<?xml version="1.0" encoding="UTF-8" standalone="no"?>
<!DOCTYPE svg PUBLIC "-//W3C//DTD SVG 1.1//EN"
 "http://www.w3.org/Graphics/SVG/1.1/DTD/svg11.dtd">
<!-- Generated by graphviz version 2.40.1 (20161225.0304)
 -->
<!-- Title: inheritance3860661366 Pages: 1 -->
<svg width="196pt" height="286pt"
 viewBox="0.00 0.00 196.00 286.00" xmlns="http://www.w3.org/2000/svg" xmlns:xlink="http://www.w3.org/1999/xlink">
<g id="graph0" class="graph" transform="scale(1 1) rotate(0) translate(4 282)">
<title>inheritance3860661366</title>
<polygon fill="#ffffff" stroke="transparent" points="-4,4 -4,-282 192,-282 192,4 -4,4"/>
<!-- bunch -->
<g id="node1" class="node">
<title>bunch</title>
<g id="a_node1"><a xlink:href="../../api/ChiantiPy.core.html#ChiantiPy.core.Spectrum.bunch" xlink:title="Calculate the emission line spectrum as a function of temperature and density." target="_top">
<polygon fill="none" stroke="#000000" stroke-width=".5" points="171.5,-56 117.5,-56 117.5,-37 171.5,-37 171.5,-56"/>
<text text-anchor="middle" x="144.5" y="-44" font-family="Vera Sans, DejaVu Sans, Liberation Sans, Arial, Helvetica, sans" font-size="10.00" fill="#000000">bunch</text>
</a>
</g>
</g>
<!-- ionTrails -->
<g id="node2" class="node">
<title>ionTrails</title>
<g id="a_node2"><a xlink:href="../../api/ChiantiPy.base.ionTrails.html#ChiantiPy.base.ionTrails" xlink:title="Base class for `ChiantiPy.core.ion` and `ChiantiPy.core.spectrum`" target="_top">
<polygon fill="none" stroke="#000000" stroke-width=".5" points="61,-148 4,-148 4,-129 61,-129 61,-148"/>
<text text-anchor="middle" x="32.5" y="-136" font-family="Vera Sans, DejaVu Sans, Liberation Sans, Arial, Helvetica, sans" font-size="10.00" fill="#000000">ionTrails</text>
</a>
</g>
</g>
<!-- ionTrails&#45;&gt;bunch -->
<g id="edge1" class="edge">
<title>ionTrails&#45;&gt;bunch</title>
<path fill="none" stroke="#000000" stroke-width=".5" d="M41.1213,-128.7282C57.9173,-109.7598 93.9958,-69.3762 101,-64.5 104.5676,-62.0163 108.5305,-59.7876 112.5705,-57.8153"/>
<polygon fill="#000000" stroke="#000000" stroke-width=".5" points="113.5236,-59.3028 117.3293,-55.6177 112.0562,-56.1252 113.5236,-59.3028"/>
</g>
<!-- continuum -->
<g id="node4" class="node">
<title>continuum</title>
<g id="a_node4"><a xlink:href="../../api/ChiantiPy.core.html#ChiantiPy.core.Continuum.continuum" xlink:title="The top level class for continuum calculations. Includes methods for the calculation of the" target="_top">
<polygon fill="none" stroke="#000000" stroke-width=".5" points="178.5,-204 110.5,-204 110.5,-185 178.5,-185 178.5,-204"/>
<text text-anchor="middle" x="144.5" y="-192" font-family="Vera Sans, DejaVu Sans, Liberation Sans, Arial, Helvetica, sans" font-size="10.00" fill="#000000">continuum</text>
</a>
</g>
</g>
<!-- ionTrails&#45;&gt;continuum -->
<g id="edge3" class="edge">
<title>ionTrails&#45;&gt;continuum</title>
<path fill="none" stroke="#000000" stroke-width=".5" d="M48.5564,-148.0916C62.2665,-156.1147 82.6261,-167.6378 101,-176.5 105.5273,-178.6837 110.3899,-180.857 115.1654,-182.8989"/>
<polygon fill="#000000" stroke="#000000" stroke-width=".5" points="114.609,-184.5634 119.8962,-184.8925 115.9682,-181.3381 114.609,-184.5634"/>
</g>
<!-- ion -->
<g id="node5" class="node">
<title>ion</title>
<g id="a_node5"><a xlink:href="../../api/ChiantiPy.core.html#ChiantiPy.core.Ion.ion" xlink:title="The top level class for performing spectral calculations for an ion in the" target="_top">
<polygon fill="none" stroke="#000000" stroke-width=".5" points="171.5,-241 117.5,-241 117.5,-222 171.5,-222 171.5,-241"/>
<text text-anchor="middle" x="144.5" y="-229" font-family="Vera Sans, DejaVu Sans, Liberation Sans, Arial, Helvetica, sans" font-size="10.00" fill="#000000">ion</text>
</a>
</g>
</g>
<!-- ionTrails&#45;&gt;ion -->
<g id="edge5" class="edge">
<title>ionTrails&#45;&gt;ion</title>
<path fill="none" stroke="#000000" stroke-width=".5" d="M39.04,-148.0324C50.1524,-163.6102 74.1439,-194.6697 101,-213.5 104.5593,-215.9956 108.5174,-218.2313 112.5548,-220.2072"/>
<polygon fill="#000000" stroke="#000000" stroke-width=".5" points="112.039,-221.8967 117.3117,-222.4074 113.5083,-218.72 112.039,-221.8967"/>
</g>
<!-- ipymspectrum -->
<g id="node8" class="node">
<title>ipymspectrum</title>
<g id="a_node8"><a xlink:href="../../api/ChiantiPy.core.html#ChiantiPy.core.IpyMspectrum.ipymspectrum" xlink:title="this is the multiprocessing version of spectrum for using inside an IPython Qtconsole or notebook." target="_top">
<polygon fill="none" stroke="#000000" stroke-width=".5" points="188,-167 101,-167 101,-148 188,-148 188,-167"/>
<text text-anchor="middle" x="144.5" y="-155" font-family="Vera Sans, DejaVu Sans, Liberation Sans, Arial, Helvetica, sans" font-size="10.00" fill="#000000">ipymspectrum</text>
</a>
</g>
</g>
<!-- ionTrails&#45;&gt;ipymspectrum -->
<g id="edge7" class="edge">
<title>ionTrails&#45;&gt;ipymspectrum</title>
<path fill="none" stroke="#000000" stroke-width=".5" d="M61.0521,-143.3437C71.6,-145.133 83.8739,-147.2152 95.7107,-149.2232"/>
<polygon fill="#000000" stroke="#000000" stroke-width=".5" points="95.5282,-150.9672 100.7505,-150.0782 96.1137,-147.5165 95.5282,-150.9672"/>
</g>
<!-- mspectrum -->
<g id="node9" class="node">
<title>mspectrum</title>
<g id="a_node9"><a xlink:href="../../api/ChiantiPy.core.html#ChiantiPy.core.Mspectrum.mspectrum" xlink:title="this is the multiprocessing version of spectrum" target="_top">
<polygon fill="none" stroke="#000000" stroke-width=".5" points="180.5,-130 108.5,-130 108.5,-111 180.5,-111 180.5,-130"/>
<text text-anchor="middle" x="144.5" y="-118" font-family="Vera Sans, DejaVu Sans, Liberation Sans, Arial, Helvetica, sans" font-size="10.00" fill="#000000">mspectrum</text>
</a>
</g>
</g>
<!-- ionTrails&#45;&gt;mspectrum -->
<g id="edge9" class="edge">
<title>ionTrails&#45;&gt;mspectrum</title>
<path fill="none" stroke="#000000" stroke-width=".5" d="M61.0521,-133.9113C73.8663,-131.8518 89.2279,-129.383 103.2585,-127.1281"/>
<polygon fill="#000000" stroke="#000000" stroke-width=".5" points="103.7014,-128.8295 108.3603,-126.3082 103.1459,-125.3738 103.7014,-128.8295"/>
</g>
<!-- spectrum -->
<g id="node11" class="node">
<title>spectrum</title>
<g id="a_node11"><a xlink:href="../../api/ChiantiPy.core.html#ChiantiPy.core.Spectrum.spectrum" xlink:title="Calculate the emission spectrum as a function of temperature and density." target="_top">
<polygon fill="none" stroke="#000000" stroke-width=".5" points="175.5,-93 113.5,-93 113.5,-74 175.5,-74 175.5,-93"/>
<text text-anchor="middle" x="144.5" y="-81" font-family="Vera Sans, DejaVu Sans, Liberation Sans, Arial, Helvetica, sans" font-size="10.00" fill="#000000">spectrum</text>
</a>
</g>
</g>
<!-- ionTrails&#45;&gt;spectrum -->
<g id="edge12" class="edge">
<title>ionTrails&#45;&gt;spectrum</title>
<path fill="none" stroke="#000000" stroke-width=".5" d="M49.1417,-128.8867C62.8619,-121.1136 82.9337,-110.0892 101,-101.5 105.5395,-99.3418 110.4085,-97.1817 115.1865,-95.1452"/>
<polygon fill="#000000" stroke="#000000" stroke-width=".5" points="115.9885,-96.7065 119.9188,-93.1546 114.6313,-93.4803 115.9885,-96.7065"/>
</g>
<!-- specTrails -->
<g id="node3" class="node">
<title>specTrails</title>
<g id="a_node3"><a xlink:href="../../api/ChiantiPy.base.specTrails.html#ChiantiPy.base.specTrails" xlink:title="a collection of methods for use in spectrum calculations" target="_top">
<polygon fill="none" stroke="#000000" stroke-width=".5" points="65,-93 0,-93 0,-74 65,-74 65,-93"/>
<text text-anchor="middle" x="32.5" y="-81" font-family="Vera Sans, DejaVu Sans, Liberation Sans, Arial, Helvetica, sans" font-size="10.00" fill="#000000">specTrails</text>
</a>
</g>
</g>
<!-- specTrails&#45;&gt;bunch -->
<g id="edge2" class="edge">
<title>specTrails&#45;&gt;bunch</title>
<path fill="none" stroke="#000000" stroke-width=".5" d="M61.3428,-73.9716C76.967,-68.81 96.3127,-62.419 112.412,-57.1005"/>
<polygon fill="#000000" stroke="#000000" stroke-width=".5" points="113.0977,-58.7171 117.2963,-55.4869 111.9997,-55.3937 113.0977,-58.7171"/>
</g>
<!-- specTrails&#45;&gt;ion -->
<g id="edge6" class="edge">
<title>specTrails&#45;&gt;ion</title>
<path fill="none" stroke="#000000" stroke-width=".5" d="M42.9781,-93.081C49.9564,-99.9068 58.926,-109.5941 65,-119.5 88.3852,-157.6381 69.7897,-181.4485 101,-213.5 104.2661,-216.8542 108.2485,-219.6085 112.4631,-221.8635"/>
<polygon fill="#000000" stroke="#000000" stroke-width=".5" points="111.8426,-223.5076 117.1046,-224.1192 113.3725,-220.3596 111.8426,-223.5076"/>
</g>
<!-- specTrails&#45;&gt;ipymspectrum -->
<g id="edge8" class="edge">
<title>specTrails&#45;&gt;ipymspectrum</title>
<path fill="none" stroke="#000000" stroke-width=".5" d="M42.9874,-93.4062C55.8891,-105.2278 78.8176,-125.0774 101,-138.5 105.3362,-141.1238 110.0995,-143.5835 114.8344,-145.8065"/>
<polygon fill="#000000" stroke="#000000" stroke-width=".5" points="114.2671,-147.471 119.543,-147.948 115.7161,-144.285 114.2671,-147.471"/>
</g>
<!-- specTrails&#45;&gt;mspectrum -->
<g id="edge10" class="edge">
<title>specTrails&#45;&gt;mspectrum</title>
<path fill="none" stroke="#000000" stroke-width=".5" d="M61.3428,-93.0284C76.3796,-97.996 94.8634,-104.1022 110.5829,-109.2952"/>
<polygon fill="#000000" stroke="#000000" stroke-width=".5" points="110.0691,-110.9685 115.3657,-110.8753 111.167,-107.6451 110.0691,-110.9685"/>
</g>
<!-- radLoss -->
<g id="node10" class="node">
<title>radLoss</title>
<g id="a_node10"><a xlink:href="../../api/ChiantiPy.core.html#ChiantiPy.core.RadLoss.radLoss" xlink:title="Calculate the emission spectrum as a function of temperature and density." target="_top">
<polygon fill="none" stroke="#000000" stroke-width=".5" points="171.5,-19 117.5,-19 117.5,0 171.5,0 171.5,-19"/>
<text text-anchor="middle" x="144.5" y="-7" font-family="Vera Sans, DejaVu Sans, Liberation Sans, Arial, Helvetica, sans" font-size="10.00" fill="#000000">radLoss</text>
</a>
</g>
</g>
<!-- specTrails&#45;&gt;radLoss -->
<g id="edge11" class="edge">
<title>specTrails&#45;&gt;radLoss</title>
<path fill="none" stroke="#000000" stroke-width=".5" d="M42.4609,-73.7478C55.1964,-61.6762 78.3233,-41.0573 101,-27.5 104.7311,-25.2694 108.7896,-23.1886 112.8783,-21.2918"/>
<polygon fill="#000000" stroke="#000000" stroke-width=".5" points="113.8213,-22.7874 117.6741,-19.1516 112.395,-19.5912 113.8213,-22.7874"/>
</g>
<!-- specTrails&#45;&gt;spectrum -->
<g id="edge13" class="edge">
<title>specTrails&#45;&gt;spectrum</title>
<path fill="none" stroke="#000000" stroke-width=".5" d="M65.1961,-83.5C78.7673,-83.5 94.5609,-83.5 108.4651,-83.5"/>
<polygon fill="#000000" stroke="#000000" stroke-width=".5" points="108.4946,-85.2501 113.4946,-83.5 108.4946,-81.7501 108.4946,-85.2501"/>
</g>
<!-- ioneqOne -->
<g id="node6" class="node">
<title>ioneqOne</title>
<g id="a_node6"><a xlink:href="../../api/ChiantiPy.base.ioneqOne.html#ChiantiPy.base.ioneqOne" xlink:title="Base class for `ChiantiPy.core.ion` and `ChiantiPy.core.continuum`" target="_top">
<polygon fill="none" stroke="#000000" stroke-width=".5" points="64,-241 1,-241 1,-222 64,-222 64,-241"/>
<text text-anchor="middle" x="32.5" y="-229" font-family="Vera Sans, DejaVu Sans, Liberation Sans, Arial, Helvetica, sans" font-size="10.00" fill="#000000">ioneqOne</text>
</a>
</g>
</g>
<!-- ioneqOne&#45;&gt;ion -->
<g id="edge4" class="edge">
<title>ioneqOne&#45;&gt;ion</title>
<path fill="none" stroke="#000000" stroke-width=".5" d="M64.2951,-231.5C79.1556,-231.5 96.8319,-231.5 111.8035,-231.5"/>
<polygon fill="#000000" stroke="#000000" stroke-width=".5" points="112.1868,-233.2501 117.1868,-231.5 112.1867,-229.7501 112.1868,-233.2501"/>
</g>
<!-- ioneq -->
<g id="node7" class="node">
<title>ioneq</title>
<g id="a_node7"><a xlink:href="../../api/ChiantiPy.core.html#ChiantiPy.core.Ioneq.ioneq" xlink:title="Calculation ion fractions as a function of temperature assuming" target="_top">
<polygon fill="none" stroke="#000000" stroke-width=".5" points="59.5,-278 5.5,-278 5.5,-259 59.5,-259 59.5,-278"/>
<text text-anchor="middle" x="32.5" y="-266" font-family="Vera Sans, DejaVu Sans, Liberation Sans, Arial, Helvetica, sans" font-size="10.00" fill="#000000">ioneq</text>
</a>
</g>
</g>
</g>
</svg>
